<svg xmlns="http://www.w3.org/2000/svg" xmlns:xlink="http://www.w3.org/1999/xlink" version="1.1"
    x="0px" y="0px" viewBox="0 0 100 100" enable-background="new 0 0 100 100" xml:space="preserve">
    <path fill='white' d="M81.667,93.159H59.989c-1.104,0-2-0.896-2-2V8.841c0-1.104,0.896-2,2-2h21.678c1.104,0,2,0.896,2,2v82.318  C83.667,92.264,82.771,93.159,81.667,93.159z M40.011,93.159H18.333c-1.104,0-2-0.896-2-2V8.841c0-1.104,0.896-2,2-2h21.678  c1.104,0,2,0.896,2,2v82.318C42.011,92.264,41.115,93.159,40.011,93.159z"/>
</svg>